<svg width="162" height="80" viewBox="0 0 162 80" fill="none" xmlns="http://www.w3.org/2000/svg">
<path d="M31.3763 0.854004C31.2923 0.995773 30.9004 2.07321 30.5086 3.23571C30.1167 4.39821 29.473 6.21284 29.0811 7.31864C28.6613 8.39608 28.2414 9.67199 28.1015 10.154C27.9615 10.6077 27.5417 11.8836 27.1218 12.9894C26.73 14.0668 25.8903 16.3635 25.3025 18.093C24.7148 19.7943 23.7911 22.4311 23.2593 23.9055C22.7275 25.3799 22.2237 26.8543 22.1117 27.1662C21.9998 27.4781 21.6639 28.3571 21.384 29.151C21.0761 29.9165 20.3204 32.0997 19.6766 33.9711C19.0329 35.8424 18.2772 37.9973 18.0253 38.7912C15.982 44.547 14.9744 47.354 14.8065 47.751C14.6945 48.0629 14.8065 48.2613 15.1423 48.3747C16.7098 48.8568 21.44 50.6714 22.6435 51.2385C26.9539 53.3083 28.1015 53.8754 29.361 54.6409C31.992 56.2287 37.0861 59.7446 38.4016 60.8787C40.2209 62.4665 44.8952 67.2299 45.7349 68.3641C46.1267 68.9028 46.6025 69.4982 46.7985 69.6967C46.9664 69.9235 47.1343 70.1787 47.1343 70.3205C47.1343 70.4339 46.0987 69.4982 44.8392 68.2507C41.9003 65.3586 39.6052 63.5723 36.0785 61.4458C30.8165 58.2985 24.043 55.3497 18.3052 53.7619C15.8141 53.0814 12.6513 52.3159 11.5317 52.1174C10.1042 51.8906 10.1322 51.7488 11.8676 46.7302C12.3994 45.2558 15.5342 35.3604 16.9897 30.7104C17.4375 29.236 18.0253 27.3647 18.3052 26.5991C18.5851 25.8052 19.2008 23.8488 19.7046 22.2043C20.1805 20.5598 20.7682 18.7735 20.9642 18.2348C21.1881 17.6961 21.6639 16.2217 22.0278 14.9741L22.6715 12.7058L24.2389 12.6208L25.7784 12.5357L26.3661 11.0613C27.4297 8.50949 27.8776 8.76468 20.1525 7.4604C18.0253 7.09181 18.1092 7.09181 17.9413 7.65888C17.7454 8.25431 15.5622 14.5205 13.5469 20.2196C12.7353 22.4878 11.5317 25.9186 10.8879 27.875C10.2162 29.8314 9.1526 32.8936 8.50884 34.6799C6.91344 39.1882 6.4936 40.4074 4.73026 45.5961C3.89057 48.0912 2.82697 51.1534 2.35115 52.401C1.90332 53.6485 1.51147 54.8677 1.51147 55.1229C1.51147 55.5199 2.07126 55.6049 5.17809 55.775C12.0355 56.1436 18.0812 57.3345 24.8827 59.6311C26.59 60.1982 28.2134 60.7936 28.5213 60.9638C28.8292 61.1339 30.0328 61.701 31.1803 62.2113C34.2312 63.629 40.053 67.2583 42.1802 69.1013C42.5161 69.3848 43.2158 69.9802 43.7476 70.4339C44.9791 71.4546 44.7832 71.7382 43.4677 70.8592C37.0301 66.4644 25.2745 62.75 13.0711 61.304C11.5037 61.1055 10.1042 60.8787 9.9363 60.7936C9.74038 60.6519 9.76837 60.0281 10.0763 58.8089C10.3282 57.8449 10.4961 56.9943 10.4401 56.9659C10.3841 56.9092 8.78873 56.7958 6.91344 56.6824L3.49872 56.4839L3.05089 57.5613C2.32316 59.2625 0.671783 64.2811 0.783741 64.3946C0.83972 64.4513 4.14248 64.6497 8.11699 64.8766C12.1195 65.075 16.3739 65.4153 17.6054 65.5854C34.0073 67.9104 44.3634 71.8516 50.549 78.0894C51.5847 79.1385 52.4523 79.8473 52.4523 79.6205C52.4523 79.1952 51.8086 76.5866 51.3048 74.9421C50.801 73.3543 48.058 67.7119 47.5822 67.315C47.3303 67.0882 47.1343 66.833 47.1343 66.6912C47.1343 66.3226 45.2031 63.6574 43.1598 61.1906C41.2285 58.8656 37.6179 55.3497 34.707 52.968C31.2083 50.1043 25.2466 46.0214 23.959 45.6244C23.2313 45.3693 23.1753 44.7171 23.7351 43.4128C23.959 42.9025 26.0023 36.7214 28.2694 29.718C30.5086 22.6863 33.1116 14.6906 34.0073 11.9119C34.9309 9.13327 35.6586 6.69485 35.6586 6.43967C35.6586 5.58907 31.6841 0.371994 31.3763 0.854004Z" fill="white"/>
<path d="M135.945 27.7049C132.194 28.8958 130.263 31.9863 130.263 36.8064V38.9046L128.667 38.9897L127.044 39.0747L127.072 40.4924C127.128 42.9592 127.184 43.186 127.604 43.186C127.828 43.186 128.024 43.2994 128.024 43.4412C128.024 43.6113 128.499 43.7531 129.087 43.8098L130.123 43.8948L130.207 51.607C130.235 56.7958 130.375 59.3476 130.571 59.3476C130.739 59.3476 131.018 59.5177 131.214 59.6878C131.438 59.943 132.418 60.0564 133.929 60.0564H136.28L136.364 51.8906L136.42 43.7531H138.939H141.431L141.598 42.6756C141.85 41.258 141.962 40.9177 142.214 40.9177C142.326 40.9177 142.97 42.307 143.614 43.9799C144.257 45.6528 145.181 48.0345 145.685 49.282C146.161 50.5296 146.833 52.2592 147.14 53.1098C147.476 53.9604 147.84 54.811 147.952 54.9811C148.092 55.1512 148.344 55.8884 148.568 56.5973C148.932 57.8448 148.904 57.9583 148.148 59.5177C146.916 61.9845 145.209 64.0543 143.39 65.2735C142.494 65.8973 141.598 66.436 141.403 66.5211C140.899 66.6912 144.509 70.4055 145.181 70.4055C146.049 70.4055 148.54 68.5909 150.219 66.6912C151.395 65.3869 152.346 63.8558 153.634 61.1622C154.642 59.1208 155.453 57.3628 155.453 57.2211C155.453 56.9942 157.944 50.4729 159.344 47.0137C160.939 43.1009 161.891 40.5491 161.891 40.1805C161.891 39.9537 161.695 39.7836 161.471 39.7836C161.247 39.7836 161.051 39.5851 161.051 39.3583C161.051 39.018 160.603 38.933 158.812 38.933H156.601L156.209 39.8403C155.985 40.3506 155.649 41.2296 155.453 41.7683C155.257 42.307 154.81 43.4695 154.446 44.3202C154.11 45.1708 153.41 46.9287 152.906 48.2046C152.43 49.5089 151.927 50.558 151.787 50.558C151.647 50.558 151.535 50.5296 151.535 50.4729C151.535 50.4445 151.311 49.7641 151.003 48.9985C150.723 48.2046 149.911 45.993 149.184 44.065C148.456 42.1369 147.588 40.2089 147.252 39.7552L146.637 38.9613H141.543L136.42 38.933V36.9482C136.42 34.8784 136.756 33.9711 137.96 32.8936C138.408 32.4967 138.939 32.4116 140.899 32.4683L143.25 32.5534L143.614 30.7387C143.95 29.0092 143.95 28.8958 143.418 28.357C143.082 28.0735 142.438 27.7049 141.934 27.5631C140.675 27.1945 137.316 27.2796 135.945 27.7049Z" fill="white"/>
<path d="M121.194 30.1717C119.991 31.1358 119.599 32.1281 120.047 33.1489C120.495 34.2547 122.622 36.0977 123.434 36.0977C123.769 36.0977 124.497 35.6724 125.057 35.162C126.568 33.7443 126.484 32.7236 124.637 30.9656C123.07 29.4345 122.342 29.2644 121.194 30.1717Z" fill="white"/>
<path d="M50.5207 38.848C46.8541 39.8403 44.2231 42.7891 43.3274 46.8437C42.4877 50.6714 43.5793 54.1589 46.5182 57.0794C49.653 60.1699 53.6555 61.1906 58.5257 60.1699C60.6809 59.7446 61.0448 59.291 61.2687 56.8809C61.4086 55.0663 61.3806 54.8394 61.0168 54.9812C60.7089 55.0946 60.5689 54.9812 60.5689 54.5842V53.9888L59.3094 54.5559C56.6784 55.7467 52.396 55.5199 50.7166 54.1589C49.9329 53.5068 48.9813 51.6071 49.2892 51.2952C49.4011 51.2102 51.9482 51.1251 54.971 51.1251H60.457L61.6325 49.9059C62.7521 48.7434 62.8081 48.63 62.8081 46.9288C62.8081 44.3202 61.7165 42.4205 59.0575 40.3791C56.5944 38.5361 53.6275 37.969 50.5207 38.848ZM55.6148 43.6114C56.1746 43.7248 56.5385 44.065 56.8183 44.7455C57.5741 46.6169 57.63 46.5885 53.4036 46.5885H49.625L50.1289 45.7095C50.4088 45.2275 50.9965 44.5754 51.4444 44.2352C52.2001 43.6964 53.9074 43.2144 54.5512 43.3562C54.7191 43.3845 55.195 43.498 55.6148 43.6114Z" fill="white"/>
<path d="M68.0426 38.7913C67.1469 38.9897 65.9994 39.3867 65.4676 39.6702C64.432 40.2373 64.432 40.1806 65.1037 42.8175C65.2716 43.498 65.5515 44.0367 65.7475 44.0367C65.9714 44.0367 66.1673 44.1785 66.2233 44.3486C66.3073 44.5754 66.867 44.4903 68.0706 44.065C70.2258 43.3278 73.4446 43.2428 74.1163 43.9233C74.3682 44.1501 74.5642 44.8306 74.5642 45.426V46.5035L72.213 46.6736C68.6024 46.9288 66.867 47.5525 65.2996 49.1403C63.7042 50.7849 63.2564 52.316 63.7042 54.8678C63.9561 56.2855 64.1801 56.7391 65.2996 57.9016C67.3149 59.9998 68.0986 60.34 71.0935 60.34C73.5845 60.34 73.6965 60.3117 74.8161 59.4044L75.9636 58.4687L77.2511 59.4894C77.9789 60.0282 78.7906 60.4818 79.0705 60.4818C79.5743 60.4818 81.9534 58.6105 82.2333 58.015C82.2893 57.8449 82.0653 57.3913 81.7295 57.0227C80.5259 55.8035 80.4419 55.3498 80.4419 49.9626C80.4419 45.0574 80.414 44.7172 79.7422 43.3278C79.3783 42.5056 78.5946 41.4849 78.0628 41.0312C77.5031 40.5775 76.8593 40.0388 76.6354 39.812C75.9916 39.2166 72.6609 38.366 71.0655 38.3943C70.3098 38.4227 68.9383 38.5928 68.0426 38.7913ZM74.6201 52.1175C74.5642 52.7413 74.2563 53.6486 73.9764 54.1589C73.0247 55.69 70.1978 56.3989 69.4701 55.2647C69.3581 55.0946 69.2462 54.4708 69.2462 53.9038C69.2462 53.0532 69.4141 52.7129 70.2258 52.0608C71.1774 51.2952 72.5769 50.8699 74.0044 50.955C74.6481 50.9833 74.7041 51.0684 74.6201 52.1175Z" fill="white"/>
<path d="M106.416 38.7912C105.688 38.9897 104.764 39.415 104.344 39.7552C103.561 40.379 103.085 40.2372 102.469 39.2732C102.329 39.0464 101.49 38.933 100.034 38.933H97.7949V49.1403C97.7949 57.618 97.8509 59.3476 98.1868 59.3476C98.3827 59.3476 98.7186 59.5461 98.9145 59.7729C99.1944 60.1132 99.7822 60.1982 101.546 60.1415L103.813 60.0565L103.953 52.968C104.093 45.3409 104.149 45.1141 105.66 44.2068C106.808 43.5263 109.551 43.583 110.334 44.3202C110.95 44.8872 110.95 45.0574 110.95 52.1174C110.95 58.3552 111.006 59.3476 111.37 59.3476C111.594 59.3476 111.79 59.4894 111.79 59.6311C111.79 59.8296 112.713 59.9147 114.393 59.858L116.968 59.7729V51.9757C116.968 44.547 116.94 44.1217 116.352 43.0159C115.204 40.8327 113.413 39.3866 111.174 38.7629C109.383 38.2808 108.179 38.2808 106.416 38.7912Z" fill="white"/>
<path d="M92.813 38.9046C92.3092 39.0464 91.3856 39.5568 90.7978 40.0388C89.5103 41.0595 89.3983 41.0879 89.3983 40.3507C89.3983 40.0388 89.2024 39.7836 88.9785 39.7836C88.7545 39.7836 88.5586 39.5851 88.5586 39.3583C88.5586 39.018 88.0828 38.933 86.0396 38.933H83.5205V49.1403C83.5205 56.2004 83.6045 59.3476 83.8284 59.3476C83.9963 59.3476 84.3042 59.5461 84.5281 59.7729C85.0879 60.3116 89.0904 60.3967 89.2584 59.8296C89.3143 59.6595 89.4263 56.9943 89.5103 53.9037C89.6222 48.9702 89.7062 48.2046 90.238 47.1555C90.9657 45.7095 92.785 44.8022 94.6883 44.944C96.0878 45.029 96.0318 45.1424 96.7595 41.5699C97.0954 39.9537 97.0954 39.7836 96.6196 39.3583C95.9758 38.8196 94.0725 38.5927 92.813 38.9046Z" fill="white"/>
<path d="M119.907 49.1404C119.907 57.7599 119.963 59.3477 120.299 59.3477C120.523 59.3477 120.747 59.4611 120.803 59.6029C120.915 59.9147 125.001 60.255 125.645 60.0282C126.009 59.8864 126.065 58.5821 126.065 49.8208C126.065 41.0879 126.009 39.7836 125.645 39.7836C125.421 39.7836 125.225 39.5852 125.225 39.3583C125.225 39.0181 124.749 38.933 122.566 38.933H119.907V49.1404Z" fill="white"/>
</svg>
