<?xml version="1.0" standalone="no"?>
<!DOCTYPE svg PUBLIC "-//W3C//DTD SVG 20010904//EN"
 "http://www.w3.org/TR/2001/REC-SVG-20010904/DTD/svg10.dtd">
<svg version="1.0" xmlns="http://www.w3.org/2000/svg"
 width="761.000000pt" height="328.000000pt" viewBox="0 0 761.000000 328.000000"
 preserveAspectRatio="xMidYMid meet">

<g transform="translate(0.000000,328.000000) scale(0.100000,-0.100000)"
fill="#000000" stroke="none">
<path d="M1907 3003 c-3 -5 -17 -43 -31 -84 -14 -41 -37 -105 -51 -144 -15
-38 -30 -83 -35 -100 -5 -16 -20 -61 -35 -100 -14 -38 -44 -119 -65 -180 -21
-60 -54 -153 -73 -205 -19 -52 -37 -104 -41 -115 -4 -11 -16 -42 -26 -70 -11
-27 -38 -104 -61 -170 -23 -66 -50 -142 -59 -170 -73 -203 -109 -302 -115
-316 -4 -11 0 -18 12 -22 56 -17 225 -81 268 -101 154 -73 195 -93 240 -120
94 -56 276 -180 323 -220 65 -56 232 -224 262 -264 14 -19 31 -40 38 -47 6 -8
12 -17 12 -22 0 -4 -37 29 -82 73 -105 102 -187 165 -313 240 -188 111 -430
215 -635 271 -89 24 -202 51 -242 58 -51 8 -50 13 12 190 19 52 131 401 183
565 16 52 37 118 47 145 10 28 32 97 50 155 17 58 38 121 45 140 8 19 25 71
38 115 l23 80 56 3 55 3 21 52 c38 90 54 81 -222 127 -76 13 -73 13 -79 -7 -7
-21 -85 -242 -157 -443 -29 -80 -72 -201 -95 -270 -24 -69 -62 -177 -85 -240
-57 -159 -72 -202 -135 -385 -30 -88 -68 -196 -85 -240 -16 -44 -30 -87 -30
-96 0 -14 20 -17 131 -23 245 -13 461 -55 704 -136 61 -20 119 -41 130 -47 11
-6 54 -26 95 -44 109 -50 317 -178 393 -243 12 -10 37 -31 56 -47 44 -36 37
-46 -10 -15 -230 155 -650 286 -1086 337 -56 7 -106 15 -112 18 -7 5 -6 27 5
70 9 34 15 64 13 65 -2 2 -59 6 -126 10 l-122 7 -16 -38 c-26 -60 -85 -237
-81 -241 2 -2 120 -9 262 -17 143 -7 295 -19 339 -25 586 -82 956 -221 1177
-441 37 -37 68 -62 68 -54 0 15 -23 107 -41 165 -18 56 -116 255 -133 269 -9
8 -16 17 -16 22 0 13 -69 107 -142 194 -69 82 -198 206 -302 290 -125 101
-338 245 -384 259 -26 9 -28 32 -8 78 8 18 81 236 162 483 80 248 173 530 205
628 33 98 59 184 59 193 0 30 -142 214 -153 197z"/>
<path d="M5643 2056 c-134 -42 -203 -151 -203 -321 l0 -74 -57 -3 -58 -3 1
-50 c2 -87 4 -95 19 -95 8 0 15 -4 15 -9 0 -6 17 -11 38 -13 l37 -3 3 -272 c1
-183 6 -273 13 -273 6 0 16 -6 23 -12 8 -9 43 -13 97 -13 l84 0 3 288 2 287
90 0 89 0 6 38 c9 50 13 62 22 62 4 0 27 -49 50 -108 23 -59 56 -143 74 -187
17 -44 41 -105 52 -135 12 -30 25 -60 29 -66 5 -6 14 -32 22 -57 13 -44 12
-48 -15 -103 -44 -87 -105 -160 -170 -203 -32 -22 -64 -41 -71 -44 -18 -6 111
-137 135 -137 31 0 120 64 180 131 42 46 76 100 122 195 36 72 65 134 65 139
0 8 89 238 139 360 57 138 91 228 91 241 0 8 -7 14 -15 14 -8 0 -15 7 -15 15
0 12 -16 15 -80 15 l-79 0 -14 -32 c-8 -18 -20 -49 -27 -68 -7 -19 -23 -60
-36 -90 -12 -30 -37 -92 -55 -137 -17 -46 -35 -83 -40 -83 -5 0 -9 1 -9 3 0 1
-8 25 -19 52 -10 28 -39 106 -65 174 -26 68 -57 136 -69 152 l-22 28 -182 0
-183 1 0 70 c0 73 12 105 55 143 16 14 35 17 105 15 l84 -3 13 64 c12 61 12
65 -7 84 -12 10 -35 23 -53 28 -45 13 -165 10 -214 -5z"/>
<path d="M5116 1969 c-43 -34 -57 -69 -41 -105 16 -39 92 -104 121 -104 12 0
38 15 58 33 54 50 51 86 -15 148 -56 54 -82 60 -123 28z"/>
<path d="M2591 1663 c-131 -35 -225 -139 -257 -282 -30 -135 9 -258 114 -361
112 -109 255 -145 429 -109 77 15 90 31 98 116 5 64 4 72 -9 67 -11 -4 -16 0
-16 14 l0 21 -45 -20 c-94 -42 -247 -34 -307 14 -28 23 -62 90 -51 101 4 3 95
6 203 6 l196 0 42 43 c40 41 42 45 42 105 0 92 -39 159 -134 231 -88 65 -194
85 -305 54z m182 -168 c20 -4 33 -16 43 -40 27 -66 29 -65 -122 -65 l-135 0
18 31 c10 17 31 40 47 52 27 19 88 36 111 31 6 -1 23 -5 38 -9z"/>
<path d="M3217 1665 c-32 -7 -73 -21 -92 -31 -37 -20 -37 -18 -13 -111 6 -24
16 -43 23 -43 8 0 15 -5 17 -11 3 -8 23 -5 66 10 77 26 192 29 216 5 9 -8 16
-32 16 -53 l0 -38 -84 -6 c-129 -9 -191 -31 -247 -87 -57 -58 -73 -112 -57
-202 9 -50 17 -66 57 -107 72 -74 100 -86 207 -86 89 0 93 1 133 33 l41 33 46
-36 c26 -19 55 -35 65 -35 18 0 103 66 113 87 2 6 -6 22 -18 35 -43 43 -46 59
-46 249 0 173 -1 185 -25 234 -13 29 -41 65 -60 81 -20 16 -43 35 -51 43 -23
21 -142 51 -199 50 -27 -1 -76 -7 -108 -14z m235 -470 c-2 -22 -13 -54 -23
-72 -34 -54 -135 -79 -161 -39 -4 6 -8 28 -8 48 0 30 6 42 35 65 34 27 84 42
135 39 23 -1 25 -4 22 -41z"/>
<path d="M4588 1665 c-26 -7 -59 -22 -74 -34 -28 -22 -45 -17 -67 17 -5 8 -35
12 -87 12 l-80 0 0 -360 c0 -299 2 -360 14 -360 7 0 19 -7 26 -15 10 -12 31
-15 94 -13 l81 3 5 250 c5 269 7 277 61 309 41 24 139 22 167 -4 22 -20 22
-26 22 -275 0 -220 2 -255 15 -255 8 0 15 -5 15 -10 0 -7 33 -10 93 -8 l92 3
0 275 c0 262 -1 277 -22 316 -41 77 -105 128 -185 150 -64 17 -107 17 -170 -1z"/>
<path d="M4102 1661 c-18 -5 -51 -23 -72 -40 -46 -36 -50 -37 -50 -11 0 11 -7
20 -15 20 -8 0 -15 7 -15 15 0 12 -17 15 -90 15 l-90 0 0 -360 c0 -249 3 -360
11 -360 6 0 17 -7 25 -15 20 -19 163 -22 169 -2 2 6 6 100 9 209 4 174 7 201
26 238 26 51 91 83 159 78 50 -3 48 -7 74 119 12 57 12 63 -5 78 -23 19 -91
27 -136 16z"/>
<path d="M5070 1300 c0 -304 2 -360 14 -360 8 0 16 -4 18 -9 4 -11 150 -23
173 -15 13 5 15 51 15 360 0 308 -2 354 -15 354 -8 0 -15 7 -15 15 0 12 -17
15 -95 15 l-95 0 0 -360z"/>
</g>
</svg>
