<svg width="213" height="93" viewBox="0 0 213 93" fill="none" xmlns="http://www.w3.org/2000/svg">
<path d="M53.376 7.854C53.292 7.99577 52.9002 9.07321 52.5083 10.2357C52.1165 11.3982 51.4727 13.2128 51.0809 14.3186C50.661 15.3961 50.2412 16.672 50.1012 17.154C49.9613 17.6077 49.5414 18.8836 49.1216 19.9894C48.7297 21.0668 47.8901 23.3635 47.3023 25.093C46.7145 26.7943 45.7909 29.4311 45.2591 30.9055C44.7273 32.3799 44.2234 33.8543 44.1115 34.1662C43.9995 34.4781 43.6637 35.3571 43.3838 36.151C43.0759 36.9165 42.3202 39.0997 41.6764 40.9711C41.0326 42.8424 40.2769 44.9973 40.025 45.7912C37.9818 51.547 36.9742 54.354 36.8062 54.751C36.6943 55.0629 36.8062 55.2613 37.1421 55.3747C38.7095 55.8568 43.4397 57.6714 44.6433 58.2385C48.9537 60.3083 50.1012 60.8754 51.3608 61.6409C53.9918 63.2287 59.0859 66.7446 60.4014 67.8787C62.2207 69.4665 66.8949 74.2299 67.7346 75.3641C68.1265 75.9028 68.6023 76.4982 68.7982 76.6967C68.9662 76.9235 69.1341 77.1787 69.1341 77.3205C69.1341 77.4339 68.0985 76.4982 66.839 75.2507C63.9001 72.3586 61.6049 70.5723 58.0782 68.4458C52.8162 65.2985 46.0428 62.3497 40.3049 60.7619C37.8139 60.0814 34.651 59.3159 33.5315 59.1174C32.104 58.8906 32.132 58.7488 33.8673 53.7302C34.3991 52.2558 37.534 42.3604 38.9894 37.7104C39.4372 36.236 40.025 34.3647 40.3049 33.5991C40.5848 32.8052 41.2006 30.8488 41.7044 29.2043C42.1802 27.5598 42.768 25.7735 42.9639 25.2348C43.1878 24.6961 43.6637 23.2217 44.0275 21.9741L44.6713 19.7058L46.2387 19.6208L47.7781 19.5357L48.3659 18.0613C49.4295 15.5095 49.8773 15.7647 42.1522 14.4604C40.025 14.0918 40.109 14.0918 39.9411 14.6589C39.7451 15.2543 37.5619 21.5205 35.5467 27.2196C34.735 29.4878 33.5315 32.9186 32.8877 34.875C32.216 36.8314 31.1524 39.8936 30.5086 41.6799C28.9132 46.1882 28.4934 47.4074 26.73 52.5961C25.8903 55.0912 24.8267 58.1534 24.3509 59.401C23.9031 60.6485 23.5112 61.8677 23.5112 62.1229C23.5112 62.5199 24.071 62.6049 27.1778 62.775C34.0353 63.1436 40.081 64.3345 46.8824 66.6311C48.5898 67.1982 50.2132 67.7936 50.5211 67.9638C50.829 68.1339 52.0325 68.701 53.1801 69.2113C56.2309 70.629 62.0527 74.2583 64.1799 76.1013C64.5158 76.3848 65.2156 76.9802 65.7474 77.4339C66.9789 78.4546 66.783 78.7382 65.4675 77.8592C59.0299 73.4644 47.2743 69.75 35.0709 68.304C33.5035 68.1055 32.104 67.8787 31.9361 67.7936C31.7401 67.6519 31.7681 67.0281 32.076 65.8089C32.3279 64.8449 32.4958 63.9943 32.4399 63.9659C32.3839 63.9092 30.7885 63.7958 28.9132 63.6824L25.4985 63.4839L25.0506 64.5613C24.3229 66.2625 22.6715 71.2811 22.7835 71.3946C22.8395 71.4513 26.1422 71.6497 30.1167 71.8766C34.1192 72.075 38.3736 72.4153 39.6052 72.5854C56.007 74.9104 66.3631 78.8516 72.5488 85.0894C73.5844 86.1385 74.4521 86.8473 74.4521 86.6205C74.4521 86.1952 73.8083 83.5866 73.3045 81.9421C72.8007 80.3543 70.0577 74.7119 69.5819 74.315C69.33 74.0882 69.1341 73.833 69.1341 73.6912C69.1341 73.3226 67.2028 70.6574 65.1596 68.1906C63.2283 65.8656 59.6177 62.3497 56.7068 59.968C53.2081 57.1043 47.2463 53.0214 45.9588 52.6244C45.2311 52.3693 45.1751 51.7171 45.7349 50.4128C45.9588 49.9025 48.002 43.7214 50.2692 36.718C52.5083 29.6863 55.1114 21.6906 56.007 18.9119C56.9307 16.1333 57.6584 13.6949 57.6584 13.4397C57.6584 12.5891 53.6839 7.37199 53.376 7.854Z" fill="white"/>
<path d="M157.945 34.7049C154.194 35.8958 152.263 38.9863 152.263 43.8064V45.9046L150.667 45.9897L149.044 46.0747L149.072 47.4924C149.128 49.9592 149.184 50.186 149.604 50.186C149.828 50.186 150.024 50.2994 150.024 50.4412C150.024 50.6113 150.5 50.7531 151.087 50.8098L152.123 50.8948L152.207 58.607C152.235 63.7958 152.375 66.3476 152.571 66.3476C152.739 66.3476 153.019 66.5177 153.215 66.6878C153.438 66.943 154.418 67.0564 155.929 67.0564H158.281L158.365 58.8906L158.421 50.7531H160.94H163.431L163.599 49.6756C163.851 48.258 163.962 47.9177 164.214 47.9177C164.326 47.9177 164.97 49.307 165.614 50.9799C166.258 52.6528 167.181 55.0345 167.685 56.282C168.161 57.5296 168.833 59.2592 169.141 60.1098C169.476 60.9604 169.84 61.811 169.952 61.9811C170.092 62.1512 170.344 62.8884 170.568 63.5973C170.932 64.8448 170.904 64.9583 170.148 66.5177C168.917 68.9845 167.209 71.0543 165.39 72.2735C164.494 72.8973 163.599 73.436 163.403 73.5211C162.899 73.6912 166.51 77.4055 167.181 77.4055C168.049 77.4055 170.54 75.5909 172.219 73.6912C173.395 72.3869 174.347 70.8558 175.634 68.1622C176.642 66.1208 177.453 64.3628 177.453 64.2211C177.453 63.9942 179.944 57.4729 181.344 54.0137C182.939 50.1009 183.891 47.5491 183.891 47.1805C183.891 46.9537 183.695 46.7836 183.471 46.7836C183.247 46.7836 183.051 46.5851 183.051 46.3583C183.051 46.018 182.603 45.933 180.812 45.933H178.601L178.209 46.8403C177.985 47.3506 177.649 48.2296 177.453 48.7683C177.257 49.307 176.81 50.4695 176.446 51.3202C176.11 52.1708 175.41 53.9287 174.906 55.2046C174.431 56.5089 173.927 57.558 173.787 57.558C173.647 57.558 173.535 57.5296 173.535 57.4729C173.535 57.4445 173.311 56.7641 173.003 55.9985C172.723 55.2046 171.911 52.993 171.184 51.065C170.456 49.1369 169.588 47.2089 169.252 46.7552L168.637 45.9613H163.543L158.421 45.933V43.9482C158.421 41.8784 158.756 40.9711 159.96 39.8936C160.408 39.4967 160.94 39.4116 162.899 39.4683L165.25 39.5534L165.614 37.7387C165.95 36.0092 165.95 35.8958 165.418 35.357C165.082 35.0735 164.438 34.7049 163.934 34.5631C162.675 34.1945 159.316 34.2796 157.945 34.7049Z" fill="white"/>
<path d="M143.194 37.1717C141.991 38.1358 141.599 39.1281 142.047 40.1489C142.495 41.2547 144.622 43.0977 145.433 43.0977C145.769 43.0977 146.497 42.6724 147.057 42.162C148.568 40.7443 148.484 39.7236 146.637 37.9656C145.07 36.4345 144.342 36.2644 143.194 37.1717Z" fill="white"/>
<path d="M72.5208 45.848C68.8542 46.8403 66.2232 49.7891 65.3275 53.8437C64.4879 57.6714 65.5794 61.1589 68.5183 64.0794C71.6532 67.1699 75.6557 68.1906 80.5258 67.1699C82.681 66.7446 83.0449 66.291 83.2688 63.8809C83.4087 62.0663 83.3808 61.8394 83.0169 61.9812C82.709 62.0946 82.5691 61.9812 82.5691 61.5842V60.9888L81.3095 61.5559C78.6785 62.7467 74.3961 62.5199 72.7168 61.1589C71.9331 60.5068 70.9814 58.6071 71.2893 58.2952C71.4013 58.2102 73.9483 58.1251 76.9712 58.1251H82.4571L83.6327 56.9059C84.7522 55.7434 84.8082 55.63 84.8082 53.9288C84.8082 51.3202 83.7166 49.4205 81.0576 47.3791C78.5946 45.5361 75.6277 44.969 72.5208 45.848ZM77.6149 50.6114C78.1747 50.7248 78.5386 51.065 78.8185 51.7455C79.5742 53.6169 79.6302 53.5885 75.4038 53.5885H71.6252L72.129 52.7095C72.4089 52.2275 72.9967 51.5754 73.4445 51.2352C74.2002 50.6964 75.9076 50.2144 76.5513 50.3562C76.7193 50.3845 77.1951 50.498 77.6149 50.6114Z" fill="white"/>
<path d="M90.0422 45.7913C89.1466 45.9897 87.999 46.3867 87.4672 46.6702C86.4316 47.2373 86.4316 47.1806 87.1033 49.8175C87.2713 50.498 87.5512 51.0367 87.7471 51.0367C87.971 51.0367 88.1669 51.1785 88.2229 51.3486C88.3069 51.5754 88.8667 51.4903 90.0702 51.065C92.2254 50.3278 95.4442 50.2428 96.116 50.9233C96.3679 51.1501 96.5638 51.8306 96.5638 52.426V53.5035L94.2127 53.6736C90.602 53.9288 88.8667 54.5525 87.2993 56.1403C85.7039 57.7849 85.256 59.316 85.7039 61.8678C85.9558 63.2855 86.1797 63.7391 87.2993 64.9016C89.3145 66.9998 90.0982 67.34 93.0931 67.34C95.5842 67.34 95.6961 67.3117 96.8157 66.4044L97.9633 65.4687L99.2508 66.4894C99.9785 67.0282 100.79 67.4818 101.07 67.4818C101.574 67.4818 103.953 65.6105 104.233 65.015C104.289 64.8449 104.065 64.3913 103.729 64.0227C102.526 62.8035 102.442 62.3498 102.442 56.9626C102.442 52.0574 102.414 51.7172 101.742 50.3278C101.378 49.5056 100.594 48.4849 100.062 48.0312C99.5027 47.5775 98.8589 47.0388 98.635 46.812C97.9913 46.2166 94.6605 45.366 93.0651 45.3943C92.3094 45.4227 90.9379 45.5928 90.0422 45.7913ZM96.6198 59.1175C96.5638 59.7413 96.2559 60.6486 95.976 61.1589C95.0244 62.69 92.1974 63.3989 91.4697 62.2647C91.3577 62.0946 91.2458 61.4708 91.2458 60.9038C91.2458 60.0532 91.4137 59.7129 92.2254 59.0608C93.1771 58.2952 94.5765 57.8699 96.004 57.955C96.6478 57.9833 96.7037 58.0684 96.6198 59.1175Z" fill="white"/>
<path d="M128.416 45.7912C127.688 45.9897 126.764 46.415 126.345 46.7552C125.561 47.379 125.085 47.2372 124.469 46.2732C124.329 46.0464 123.49 45.933 122.034 45.933H119.795V56.1403C119.795 64.618 119.851 66.3476 120.187 66.3476C120.383 66.3476 120.719 66.5461 120.915 66.7729C121.195 67.1132 121.782 67.1982 123.546 67.1415L125.813 67.0565L125.953 59.968C126.093 52.3409 126.149 52.1141 127.66 51.2068C128.808 50.5263 131.551 50.583 132.334 51.3202C132.95 51.8872 132.95 52.0574 132.95 59.1174C132.95 65.3552 133.006 66.3476 133.37 66.3476C133.594 66.3476 133.79 66.4894 133.79 66.6311C133.79 66.8296 134.713 66.9147 136.393 66.858L138.968 66.7729V58.9757C138.968 51.547 138.94 51.1217 138.352 50.0159C137.205 47.8327 135.413 46.3866 133.174 45.7629C131.383 45.2808 130.179 45.2808 128.416 45.7912Z" fill="white"/>
<path d="M114.813 45.9046C114.309 46.0464 113.385 46.5568 112.798 47.0388C111.51 48.0595 111.398 48.0879 111.398 47.3507C111.398 47.0388 111.202 46.7836 110.978 46.7836C110.754 46.7836 110.558 46.5851 110.558 46.3583C110.558 46.018 110.083 45.933 108.039 45.933H105.52V56.1403C105.52 63.2004 105.604 66.3476 105.828 66.3476C105.996 66.3476 106.304 66.5461 106.528 66.7729C107.088 67.3116 111.09 67.3967 111.258 66.8296C111.314 66.6595 111.426 63.9943 111.51 60.9037C111.622 55.9702 111.706 55.2046 112.238 54.1555C112.966 52.7095 114.785 51.8022 116.688 51.944C118.088 52.029 118.032 52.1424 118.759 48.5699C119.095 46.9537 119.095 46.7836 118.619 46.3583C117.976 45.8196 116.072 45.5927 114.813 45.9046Z" fill="white"/>
<path d="M141.907 56.1404C141.907 64.7599 141.963 66.3477 142.299 66.3477C142.523 66.3477 142.746 66.4611 142.802 66.6029C142.914 66.9147 147.001 67.255 147.645 67.0282C148.008 66.8864 148.064 65.5821 148.064 56.8208C148.064 48.0879 148.008 46.7836 147.645 46.7836C147.421 46.7836 147.225 46.5852 147.225 46.3583C147.225 46.0181 146.749 45.933 144.566 45.933H141.907V56.1404Z" fill="white"/>
</svg>
